<?xml version="1.0" ?><!DOCTYPE svg  PUBLIC '-//W3C//DTD SVG 1.1//EN'  'http://www.w3.org/Graphics/SVG/1.1/DTD/svg11.dtd'><svg enable-background="new 0 0 800 800" height="800px" id="Layer_1" version="1.1" viewBox="0 0 800 800" width="800px" xml:space="preserve" xmlns="http://www.w3.org/2000/svg" xmlns:xlink="http://www.w3.org/1999/xlink"><g><path d="M735.837,162.5H64.158c-31.733,0-57.551,25.822-57.551,57.551v401.526   c0,31.738,25.817,57.551,57.551,57.551h671.679c31.729,0,57.556-25.813,57.556-57.551V220.052   C793.393,188.323,767.565,162.5,735.837,162.5z M759.709,220.052v311.33L645.64,645.445H538.039V196.184h197.798   C748.994,196.184,759.709,206.889,759.709,220.052z M504.355,645.445H295.64V196.184h208.715V645.445z M64.158,196.184h197.798   v449.261h-108.49L40.291,532.271V220.052C40.291,206.889,50.996,196.184,64.158,196.184z M40.291,621.578v-41.677l65.544,65.544   H64.158C50.996,645.445,40.291,634.74,40.291,621.578z M735.837,645.445h-42.565l66.438-66.432v42.564   C759.709,634.74,748.994,645.445,735.837,645.445z" fill="#4D4D4D"/><path d="M105.582,487.694c3.327,3.717,7.932,5.615,12.561,5.615c3.994,0,8.007-1.415,11.221-4.285l57.941-51.795   c6.931-6.199,7.528-16.847,1.33-23.778l-23.43-26.212c-6.203-6.936-16.856-7.538-23.778-1.334l-57.946,51.793   c-3.332,2.976-5.343,7.153-5.592,11.617c-0.253,4.46,1.283,8.835,4.258,12.166L105.582,487.694z" fill="#4D4D4D"/><path d="M671.33,328.17c3.253,3.036,7.378,4.54,11.5,4.54c4.502,0,8.984-1.795,12.311-5.338l24.004-25.686   c6.354-6.794,5.997-17.452-0.789-23.806l-56.775-53.077c-3.262-3.05-7.543-4.662-12.072-4.53c-4.465,0.15-8.685,2.072-11.734,5.334   l-24.013,25.69c-6.353,6.8-5.99,17.448,0.8,23.802L671.33,328.17z" fill="#4D4D4D"/><path d="M625.749,553.309c27.649,0,50.145-22.5,50.145-50.15c0-27.649-22.495-50.145-50.145-50.145   s-50.146,22.495-50.146,50.145C575.604,530.809,598.1,553.309,625.749,553.309z M625.749,486.697   c9.079,0,16.461,7.383,16.461,16.461c0,9.079-7.382,16.466-16.461,16.466s-16.461-7.387-16.461-16.466   C609.288,494.08,616.67,486.697,625.749,486.697z" fill="#4D4D4D"/><path d="M176.497,699.67c-18.571,0-33.684,15.104-33.684,33.674c0,18.571,15.113,33.68,33.684,33.68   c18.566,0,33.674-15.108,33.674-33.68C210.171,714.773,195.063,699.67,176.497,699.67z" fill="#4D4D4D"/><path d="M623.503,699.67c-18.566,0-33.675,15.104-33.675,33.674c0,18.571,15.108,33.68,33.675,33.68   s33.674-15.108,33.674-33.68C657.177,714.773,642.069,699.67,623.503,699.67z" fill="#4D4D4D"/><path d="M472.24,151.039c9.3,0,16.842-7.547,16.842-16.842V97.182c0-9.299-7.542-16.842-16.842-16.842H326.914   c-9.3,0-16.842,7.542-16.842,16.842v37.016c0,9.295,7.542,16.842,16.842,16.842c9.299,0,16.842-7.547,16.842-16.842v-20.174   h111.643v20.174C455.398,143.492,462.94,151.039,472.24,151.039z" fill="#4D4D4D"/><path d="M321.303,66.661h156.548c9.3,0,16.843-7.538,16.843-16.843c0-9.299-7.543-16.842-16.843-16.842H321.303   c-9.3,0-16.842,7.542-16.842,16.842C304.46,59.123,312.002,66.661,321.303,66.661z" fill="#4D4D4D"/></g></svg>