<?xml version="1.0" encoding="iso-8859-1"?>
<!-- Generator: Adobe Illustrator 19.0.0, SVG Export Plug-In . SVG Version: 6.00 Build 0)  -->
<svg version="1.1" id="Layer_1" xmlns="http://www.w3.org/2000/svg" xmlns:xlink="http://www.w3.org/1999/xlink" x="0px" y="0px"
	 viewBox="0 0 511.999 511.999" style="enable-background:new 0 0 511.999 511.999;" xml:space="preserve">
<path style="fill:#FFFFFF;" d="M487.654,16.367c-10.369-5.032-23.253-2.653-33.552,2.145c-4.769,2.222-9.887,3.743-14.562,6.158
	c-3.583,1.851-6.273,4.926-9.503,7.17c-0.583,0.086-1.153,0.19-1.685,0.336c0.227-0.063-7.938,4.576-5.309,3.068
	c2.545-1.462-2.923,1.092-3.734,1.463c-1.878,0.858-3.676,1.807-5.491,2.794c-5.885,3.207-11.917,6.201-17.921,9.161
	c-5.444,2.684-11.532,4.41-16.979,7.279c-0.209,0.11-0.895,0.444-1.472,0.743c-1.399,0.217-4.496,0.928-4.802,1.028
	c-3.849,1.253-7.325,3.722-10.936,5.517c-5.642,2.807-11.677,5.177-17.576,7.38c-5.823,2.175-12.423,3.527-18.522,5.597
	c-13.503,4.581-26.887,9.954-40.559,13.885c-6.817,1.959-13.749,4.552-20.067,7.796c-6.511,3.344-12.188,7.177-19.101,9.563
	c-2.904,1.002-4.805,3.01-7.41,4.375c-2.468,1.292-5.425,1.851-8.068,2.683c-7.478,2.354-15.112,5.104-22.243,8.374
	c-5.818,2.67-11.255,5.035-17.379,6.967c-7.285,2.3-13.64,5.904-20.592,8.922c-6.459,2.804-13.221,4.678-19.821,7.079
	c-6.953,2.53-12.989,6.739-20.077,8.858c-7.375,2.205-14.622,2.791-22.111,4.329c-7.593,1.559-15.171,4.275-22.354,7.15
	c-6.689,2.677-13.9,4.775-20.988,6.108c-6.108,1.149-11.119,2.631-16.629,4.848c-1.263,0.153-2.471,0.682-3.456,1.688
	c-0.121,0.126-0.244,0.25-0.367,0.374c-2.452,2.508-2.57,6.783,0,9.281c4.526,4.403,9.97,4.696,15.98,4.086
	c3.564-0.362,7.019-0.687,10.467-1.115c-0.414,2.407,1.126,4.792,3.25,6.148l-0.242,0.242c2.837,1.634,6,2.042,8.997,3.324
	c4.102,1.755,8.071,3.607,12.323,5.018c8.154,2.705,15.104,6.076,22.75,9.926c3.173,1.598,6.8,3.109,10.666,4.365
	c0.943,1.103,1.837,2.372,2.826,3.323c3.976,3.825,8.449,7.06,12.786,10.442c1.296,1.01,2.65,2.064,4.047,3.11
	c-0.089,6.486,0.76,13.167,5.585,17.651c7.212,6.699,17.825,5.124,23.149-2.983c2.012-3.064,2.801-6.759,3.214-10.477
	c0.82-1.598,1.063-3.484,0.443-5.548c0.041-0.637,0.081-1.273,0.129-1.891c0.416-5.455-0.334-10.863-1.645-16.141
	c0.069-0.869,0.141-1.736,0.196-2.61c0.452,0.094,0.905,0.18,1.356,0.24c17.756,2.352,35.801-11.825,49.695-21.151
	c7.659-5.141,15.31-10.279,22.944-15.438c-0.442,0.833-0.889,1.664-1.303,2.508c-2.382,4.862-3.549,10.479-3.097,15.794
	c-5.634-1.522-12.07-0.054-16.121,6.251c-0.17,0.236-0.33,0.499-0.499,0.739c-4.723,1.862-8.727,5.478-12.747,9.67
	c-7.562,7.885-14.904,18.458-19.984,28.094c-2.098,3.979-4.461,8.352-5.544,12.884c-1.092,0.948-1.938,2.3-2.341,4.129
	c-1.305,5.927-3.214,11.805-5.039,17.701c-0.486,0.329-0.932,0.769-1.295,1.359c-3.28,5.337-5.65,9.548-7.509,15.545
	c-1.819,5.87-3.003,11.768-4.08,17.831c-0.929,5.224-1.142,10.499-1.265,15.78c-2.118,7.732-3.853,15.44-4.831,23.559
	c-0.732,6.078-1.732,12.417-0.293,18.155c-0.828,4.566-1.658,9.131-2.474,13.699c-1.358,7.599-5.508,23.806,1.574,29.394
	c1.276,1.008,2.886,1.452,4.382,0.566c3.823-2.262,5.793-6.664,7.382-10.696c2.184-5.541,4.589-10.92,6.83-16.446
	c1.108-2.733,2.144-5.461,3.117-8.198c1.258-0.943,2.391-2.051,3.32-3.277c1.649-2.18,2.93-4.995,4.027-7.931
	c0.978,0.139,2.051,0.12,3.22-0.109c9.966-1.947,15.654-14.262,20.866-21.922c5.92-8.699,10.939-17.921,17.436-26.216
	c6.709-8.567,12.411-17.423,20.013-25.212c2.85-2.921,5.743-5.72,8.548-8.572c1.759,0.233,3.573,0.222,5.389-0.08
	c2.906,5.102,7.628,8.885,13.573,10.202c2.098,6.297,7.713,10.679,14.108,11.839c5.255,0.953,10.13-0.709,14.455-3.47
	c1.323,1.651,2.967,3.128,5.031,4.349c6.063,3.584,11.935,3.411,17.199,1.113c0.244,0.1,0.494,0.186,0.747,0.262
	c0.725,1.042,1.281,2.192,1.977,3.25c2.515,3.816,6.014,7.612,9.874,10.06c4.255,2.698,9.944,4.318,14.965,2.934
	c3.53-0.972,6.531-3.556,8.366-6.694c1.123-1.935,1.688-4.025,1.695-6.264c-0.254-2.045-0.397-3.144-0.437-3.366
	c-0.68-4.886-4.549-8.469-9.254-8.861c-0.129-0.06-0.233-0.107-0.372-0.17c-0.689-0.11-1.246-0.196-1.739-0.272
	c6.221-9.36,9.873-22.172,13.91-32.547c4.512-11.594,8.094-23.727,13.269-35.03c5.714-12.478,11.166-25.047,16.513-37.686
	c5.988-14.158,12.285-28.184,18.098-42.417c2.795-6.847,4.499-13.877,6.734-20.908c0.183-0.575,0.382-1.135,0.576-1.698
	c0.049-0.021,0.104-0.037,0.151-0.06c8.232-3.852,11.925-12.545,15.996-20.379c4.705-9.053,10.367-17.526,15.538-26.307
	c4.914-8.344,9.058-17.122,14.163-25.354c2.678-4.318,5.234-8.602,7.672-13.06c1.305-2.385,3.153-4.446,4.709-6.66
	C494.81,31.966,495.96,20.398,487.654,16.367z M226.176,290.821c-1.668,2.46-3.319,4.965-4.986,7.546
	c-1.293,2.002-2.67,3.949-4.042,5.898c1.601-3.886,3.28-7.742,5.098-11.545c0.555-1.162,1.135-2.307,1.705-3.459
	c0.852,0.233,1.702,0.374,2.551,0.474C226.395,290.098,226.285,290.46,226.176,290.821z"/>
<g>
	<path style="fill:#CCCCCC;" d="M357.874,106.74c-0.184-1.269-1.782-1.922-2.884-1.638c-0.712,0.183-1.415,0.327-2.115,0.466
		c0.882-2.671-1.909-5.211-4.583-3.812c-9.443,4.938-18.427,11.062-26.709,17.942c-9.141,5.081-17.835,10.798-26.41,16.806
		c-8.914,6.246-17.342,13.08-25.913,19.721c-9.26,2.277-18.174,7.558-26.251,12.02c-12.297,6.792-24.362,13.869-36.422,21.066
		c-11.333,6.763-18.79,17.02-28.57,25.587c-2.517,2.031-4.988,4.126-7.405,6.29c-1.817,1.564-3.594,3.171-5.338,4.938
		c-2.51,2.388-4.984,4.811-7.403,7.262c-1.725,1.196-3.437,1.968-5.222,3.817c-1.138,1.181-1.909,2.565-2.38,4.04
		c-0.732,0.769-1.464,1.539-2.19,2.305c-1.979,2.092-1.213,5.244,0.636,6.823c-0.342,1.462-0.394,3.1-0.603,4.779
		c-0.727,5.837-1.947,11.526-2.38,17.402c-0.659,8.935-2.54,22.538,3.097,30.498c-0.497,6.836-0.387,13.626,0.512,20.485
		c0.525,4.006,1.009,9.285,2.897,13.487c0.027,8.005,0.024,15.99,0.43,24.005c0.432,8.529-2.202,20.419,2.035,28.122
		c4.339,7.888,14.896,3.496,15.657-4.24c0.23-2.341,0.406-4.676,0.559-7.01c0.782-0.6,1.482-1.339,2.029-2.257
		c0.94-1.579,1.602-3.37,2.078-5.278c1.885-1.231,3.231-3.336,3.303-6.254c0.227-9.264-0.26-18.524-0.978-27.775
		c1.789-0.623,3.411-1.838,4.536-3.552c2.876-4.378,3.133-9.291,3.98-14.312c1.223-7.253,1.962-14.495,2.89-21.789
		c0.89-7.002,1.942-13.983,2.818-20.988c0.55-4.399,0.506-9.138,0.963-13.693c0.339-0.353,0.67-0.699,0.988-1.026
		c4.851-5.022,10.413-10.033,14.591-15.607c3.946-5.268,8.844-9.501,13.033-14.568c1.156-1.399,2.28-2.814,3.434-4.203
		c0.162-0.156,0.319-0.314,0.48-0.472c7.67-4.578,14.922-10.032,21.374-16.09c8.022-7.532,15.834-15.332,23.687-23.031
		c3.584-3.514,7.53-6.949,11.251-10.585c0.023-0.017,0.047-0.036,0.07-0.053c13.254-10.186,25.342-21.012,36.882-33.07
		c6.566-4.109,13.247-8.131,19.236-12.927c3.201-2.564,7.65-6.027,11.01-10.019C353.164,116.738,358.631,111.97,357.874,106.74z
		 M173.742,246.429c-0.204,0.159-0.414,0.313-0.617,0.472c-0.17,0.131-1.674,1.199-2.896,2.082
		c-0.527-0.447-1.146-0.796-1.819-1.068c0.543-0.357,1.078-0.74,1.578-1.211c1.592-1.495,2.988-3.088,4.499-4.609
		C174.252,243.542,174.005,244.987,173.742,246.429z"/>
	<path style="fill:#CCCCCC;" d="M249.618,300.275c-3.87-2.45-8.266-6.261-12.87-7.575c-0.004-0.026-0.006-0.05-0.011-0.076
		c-1-5.248-6.407-6.583-10.662-5.051c-0.014-0.024-0.023-0.051-0.039-0.076c-0.772-1.316-2.262-1.709-3.547-1.378v-0.067
		c-0.376,0.114-0.723,0.252-1.055,0.403c-3.463-5.085-13.419-3.054-13.033,4.126c-0.113,9.143,0.129,17.822-1.036,26.976
		c-0.007,0.054-0.011,0.11-0.019,0.164c-0.03,0.079-0.057,0.159-0.089,0.237c-0.803,2.075-1.526,4.179-2.22,6.294
		c-0.447,0.206-0.838,0.567-1.092,1.136c-3.89,8.668-8.062,16.93-11.646,25.74c-4.169,10.247-9.278,19.803-13.665,29.902
		c-2.847,6.556-14.361,24.861-5.431,30.109c2.304,1.353,5.198,0.865,7.102-0.916c1.744-1.631,2.934-3.344,3.987-5.208
		c5.888,0.592,11.078-6.669,14.281-10.71c6.366-8.032,11.636-16.926,16.925-25.681c4.642-7.686,8.927-15.568,13.157-23.47
		c2.971-4.066,5.945-8.132,8.584-12.421c0.366-0.306,0.736-0.613,1.096-0.915c6.6-5.518,12.834-9.204,15.054-18.195
		c0.254-1.033,0.143-1.994-0.21-2.818C254.556,307.171,253.545,302.761,249.618,300.275z"/>
	<path style="fill:#CCCCCC;" d="M470.873,30.396c-14.938,16.127-23.51,35.979-31.301,56.189c-3.737,9.694-7.469,19.356-11.628,28.87
		c-3.983,9.114-8.358,17.898-11.179,27.458c-6.063,20.543-16.33,39.73-23.655,59.915c-3.51,9.671-8.345,18.837-10.607,28.891
		c-2.444,10.863-6.068,21.955-9.26,32.651c-3.253,10.905-6.134,21.797-8.791,32.84c-1.316,5.47-2.7,10.286-4.788,15.437
		c-4.668-3.809-11.649-4.673-17.207-6.334c-7.526-2.25-14.389-5.834-22.138-7.27c-7.282-1.351-13.346-5.501-20.295-7.962
		c-7.175-2.541-13.755-6.091-20.749-9.054c-6.541-2.77-13.429-4.099-20.166-6.247c-6.047-1.928-11.312-4.922-17.525-6.549
		c-4.05-1.06-8.161-1.652-12.284-2.35c-2.17-0.367-7.493-0.196-9.454-1.191c-2.824-1.433-5.785,2.081-3.45,4.472
		c3.557,3.642,9.627,5.571,14.233,7.529c5.905,2.511,11.631,4.905,17.119,8.155c5.654,3.347,12.027,5.075,18.216,7.109
		c7.255,2.384,13.552,6.439,20.389,9.731c6.05,2.914,12.148,5.235,18.048,8.478c6.353,3.492,13.353,3.957,19.862,6.867
		c6.763,3.023,13.516,5.502,20.63,7.595c4.385,1.289,7.852,4.107,12.294,5.501c2.613,2.362,7.512,2.184,9.633-1.245
		c0.086-0.139,0.186-0.27,0.276-0.406c10.963-8.238,14.784-24.505,18.491-37.089c3.706-12.578,8.224-25.341,11.076-38.294
		c0.565-1.568,1.116-3.137,1.686-4.703c6.99-19.206,15.811-37.661,23.527-56.576c7.598-18.625,14.838-37.917,19.431-57.522
		c1.089-4.645,2.23-9.28,3.469-13.887c2.817-6.474,5.362-13.057,7.949-19.626c4.203-10.67,7.543-21.665,11.236-32.508
		c2.052-6.024,3.567-12.224,5.674-18.229c2.158-6.153,4.623-11.511,5.807-17.979C475.902,30.562,472.878,28.231,470.873,30.396z"/>
	<path style="fill:#CCCCCC;" d="M152.108,205.887c-9.348-7.468-18.508-7.668-30.023-8.775c-5.707-0.549-10.945-2.725-16.629-3.374
		c-5.671-0.646-10.94-0.572-16.513-2.16c-4.408-1.256-7.973-3.098-12.643-3.587c-6.043-0.632-11.747-1.451-17.632-3.006
		c-5.207-1.375-10.022-3.251-15.468-2.548c-1.874,0.242-3.63,0.726-5.455,1.169c-0.802,0.212-1.605,0.416-2.41,0.615
		c-0.174,0.007-0.319,0.02-0.45,0.034c-2.128-1.383-5.521-0.815-6.093,2.089c-1.508,7.655,6.833,8.958,12.483,9.916
		c6.321,1.07,12.148,3.92,18.292,5.747c5.664,1.684,11.898,1.541,17.388,3.349c5.632,1.855,10.675,4.126,16.673,5.004
		c6.529,0.956,12.321,1.961,18.714,3.564c6.248,1.568,12.913,1.769,19.304,2.421c5.201,0.53,9.446,3.679,14.751,3.331
		C152.603,219.27,158.044,210.628,152.108,205.887z"/>
</g>
<path d="M494.076,1.642c-0.114-0.014-0.216-0.004-0.326-0.01c-0.03-0.011-0.059-0.029-0.09-0.039
	c-6.417-2.128-14.559,0.742-20.836,2.422c-8.135,2.178-15.109,6.959-22.86,10.067c-8.455,3.39-17.34,5.635-25.97,8.515
	c-8.397,2.801-16.44,6.789-24.947,9.237c-32.994,9.494-63.295,26.034-95.786,37.142c-8.432,2.883-16.178,6.431-24.166,10.347
	c-7.922,3.883-16.704,6.317-25.029,9.225c-16.557,5.787-32.756,12.823-48.846,19.799c-17.086,7.408-34.574,13.653-51.43,21.568
	c-7.939,3.727-16.151,5.201-24.275,8.242c-8.574,3.21-16.77,6.171-25.617,8.699c-8.687,2.483-16.537,6.674-24.899,9.933
	c-8.838,3.444-17.019,7.879-26.396,9.959c-9.474,2.102-17.432,6.543-26.606,9.647c-7.019,2.375-16.506,4.218-22.478,8.821
	c-3.359,2.588-5.191,7.739-1.431,11.102c3.847,3.441,8.689,4.814,13.636,5.931c7.323,1.655,14.539,3.572,21.994,4.545
	c17.18,2.244,34.175,6.473,50.666,11.879c14.602,4.786,28.052,11.366,42.39,16.497c1.958,0.7,5.768,1.369,7.186,2.966
	c2.471,2.783,1.221,10.189,1.188,13.517c-0.083,8.555-0.513,17.275,0.497,25.777c0.109,0.915,0.653,1.671,1.362,2.171
	c0.224,4.403,0.536,8.782,0.152,13.314c-0.556,6.554,0.447,12.66,0.489,19.165c0.046,7.047-0.587,13.92-0.131,20.981
	c0.826,12.81,0.953,25.3,2.677,38.084c1.669,12.378,2.724,24.665,4.16,37.052c0.619,5.331,1.648,10.567,2.15,15.904
	c0.506,5.368,1.272,11.365,5.291,15.38c3.216,3.214,8.194,4.275,12.525,2.798c5.272-1.796,5.935-6.068,8.855-10.036
	c3.189-4.333,7.225-8.292,10.533-12.613c3.727-4.868,6.977-9.957,10.403-15.035c7.485-11.098,17.435-21.059,26.803-30.573
	c9.704-9.856,18.672-20.898,25.924-32.693c3.599-5.854,6.847-11.615,11.082-17.047c3.832-4.916,6.689-9.148,4.794-15.527
	c-0.029-0.097-0.07-0.184-0.104-0.279c3.17,1.476,6.354,2.917,9.504,4.456c7.525,3.676,15.438,6.561,22.923,10.276
	c7.902,3.923,15.797,6.118,24.349,8.305c16.736,4.278,33.299,8.241,47.529,18.594c3.096,2.252,7.632,0.427,9.468-2.483
	c2.783-4.412,3.602-9.867,5.167-14.795c1.711-5.382,3.149-10.746,5.031-16.078c4.385-12.417,8.318-25.2,12.194-37.784
	c3.677-11.942,8.578-23.257,12.384-35.145c4.27-13.336,8.095-26.795,12.36-40.123c3.953-12.355,7.691-24.857,12.44-36.929
	c4.619-11.742,6.802-24.086,11.952-35.673c9.96-22.404,20.669-44.491,29.573-67.304c5.254-13.462,12.162-26.847,15.82-40.839
	C498.978,16.56,504.739,2.967,494.076,1.642z M133.123,218.783c-3.926-1.475-6.489-2.807-9.967-4.914
	c-3.654-2.214-8.211-2.685-12.158-4.336c-16.589-6.936-33.865-11.848-51.492-15.432c-9.133-1.857-18.519-1.674-27.658-3.383
	c-1.638-0.306-3.267-0.649-4.898-0.989c1.652-0.506,3.274-1.009,4.809-1.559c8.321-2.988,15.644-6.967,24.295-8.907
	c14.791-3.316,28.9-10.516,42.426-16.989c7.698-3.684,16.603-4.905,24.678-7.586c3.78-1.255,7.265-3.096,10.996-4.446
	c3.977-1.441,8.229-2.027,12.27-3.274c7.572-2.338,14.638-6.025,21.822-9.308c9.008-4.116,18.594-6.72,27.759-10.467
	c15.885-6.494,31.509-13.683,47.464-20.022c15.394-6.116,31.525-10.026,46.412-17.373c7.861-3.88,16.014-6.404,24.263-9.291
	c8.904-3.116,17.418-7.265,26.197-10.712c15.298-6.008,30.036-13.194,45.491-18.694c7.976-2.838,16.201-4.874,24.11-7.892
	c7.871-3.004,15.69-5.894,23.65-8.548c-0.111,0.084-0.227,0.161-0.339,0.249c-5.162,4.01-11.142,6.417-16.584,9.991
	c-5.838,3.835-11.096,8.435-16.697,12.59c-4.792,3.554-9.906,6.661-14.641,10.289c-5.375,4.118-10.712,8.624-16.231,12.515
	c-5.228,3.686-9.521,8.231-14.904,11.731c-6.188,4.023-12.537,7.793-18.838,11.635c-5.012,3.056-10.129,6.018-14.754,9.646
	c-5.082,3.985-10.044,6.659-15.497,9.966c-4.489,2.724-9.36,4.539-13.849,7.249c-6.298,3.803-12.207,8.222-18.499,12.052
	c-11.474,6.982-22.072,15.221-33.746,21.902c-5.584,3.196-11.562,5.815-16.907,9.39c-5.164,3.453-11.212,4.476-16.233,8.059
	c-11.315,8.075-21.585,17.445-32.714,25.683c-5.808,4.298-11.865,7.959-17.479,12.571c-2.907,2.388-5.758,4.772-8.222,7.626
	C144.206,223.106,138.332,220.739,133.123,218.783z M423.195,52.888c-0.846,0.823-1.675,1.668-2.465,2.563
	c-0.153,0.173-0.263,0.353-0.386,0.53c-4.485,3.233-9.027,6.393-13.577,9.52c3.419-2.768,6.769-5.62,10.219-8.361
	C418.966,55.564,421.063,54.194,423.195,52.888z M168.395,387.265c-1.392,6.288-2.91,12.645-4.246,18.995
	c-0.436-2.531-0.797-5.074-0.993-7.641c-0.822-10.785-3.186-21.001-5.202-31.591c-2.105-11.055-2.571-22.074-4.185-33.153
	c-0.995-6.829-1.331-13.532-1.741-20.407c-0.389-6.501-2.34-12.64-2.58-19.181c-0.249-6.793-1.103-12.541-2.235-19.184
	c-0.253-1.486-0.432-2.988-0.576-4.501c1.07-5.81,2.035-11.495,2.391-17.632c0.28-4.829,0.27-9.646,0.462-14.468
	c0.021-0.549,0.05-1.069,0.079-1.581c2.341-1.423,4.513-3.173,6.763-4.851c5.858-4.368,11.461-8.838,17.748-12.581
	c11.143-6.634,20.64-16.309,31.185-23.916c2.291-1.652,4.435-3.643,6.794-5.179c2.775-1.807,6.008-2.265,9.018-3.554
	c4.999-2.141,9.467-5.77,14.316-8.312c12.448-6.527,23.725-14.422,35.42-22.14c11.131-7.345,22.314-14.954,34.328-20.659
	c10.603-5.035,19.123-12.528,28.98-18.702c6.874-4.305,14.551-8.229,21.702-12.72c-24.959,21.501-47.705,45.298-71.004,68.608
	c-11.861,11.867-24.386,22.903-36.073,34.904c-11.941,12.264-25.86,22.37-37.784,34.584c-9.318,9.546-20.569,19.737-23.064,33.366
	c-1.485,8.112-3.732,15.987-4.804,24.185c-1.203,9.211-1.914,18.474-2.911,27.708C178,347.877,172.776,367.459,168.395,387.265z
	 M481.193,32.972c-4.545,10.982-8.628,22.473-14.018,33.046c-5.268,10.336-8.978,21.672-13.676,32.324
	c-4.719,10.699-10.333,20.976-14.906,31.742c-4.448,10.47-6.448,21.597-10.699,32.104c-4.523,11.186-8.042,22.716-11.919,34.136
	c-4.21,12.403-7.559,25.048-11.838,37.433c-1.897,5.49-3.384,11.179-5.567,16.556c-2.228,5.49-4.906,10.617-6.671,16.3
	c-3.936,12.666-8.232,25.2-12.207,37.858c-1.884,6-4.378,11.835-6.003,17.899c-0.813,3.033-1.732,5.978-2.671,8.97
	c-0.134,0.429-0.242,0.882-0.339,1.343c-12.981-8.501-27.651-12.647-43.017-16.672c-5.099-1.335-10.683-2.167-15.59-4.056
	c-4.185-1.612-8.115-4.036-12.298-5.741c-9.13-3.722-18.015-8.119-26.933-12.304c-3.273-1.535-5.767-4.09-9.217-5.318
	c-4.623-1.644-8.695-3.11-13.146-5.295c-8.698-4.269-17.719-8.961-27.106-11.458c-5.45-1.449-12.654-5.029-16.834,0.882
	c-1.762,2.493-2.483,6.601-3.414,9.456c-1.506,4.611-2.3,8.977-1.821,13.832c0.107,1.083,0.637,1.999,1.375,2.687
	c-0.936,4.931-1.911,9.86-2.58,14.842c-0.923,6.879-4.006,14.695-2.428,21.608c0.433,1.895,3.662,2.044,3.983,0
	c1.245-7.905,3.907-15.134,4.692-23.206c0.404-4.172,1.13-8.385,1.711-12.607c0.6-0.477,1.063-1.199,1.253-2.241
	c0.765-4.189,2.345-7.988,4.372-11.722c0.059-0.109,0.45-0.689,0.918-1.416c2.507,1.568,5.854,2.33,8.461,3.417
	c4.336,1.811,8.562,3.889,12.767,5.987c7.207,3.597,14.122,7.042,21.547,9.97c0.889,0.35,1.711,0.806,2.513,1.299
	c-1.039,0.206-2.039,0.705-2.873,1.566c-6.171,6.368-11.681,14.612-16.067,22.371c-5.788,10.24-12.628,19.797-20.43,28.608
	c-7.741,8.742-15.956,17.06-23.717,25.798c-7.289,8.206-12.384,17.722-19.178,26.22c-1.511,1.889-3.073,3.717-4.693,5.488
	c1.256-5.955,2.768-11.884,4.09-17.822c3.936-17.665,9.111-35.055,12.345-52.874c3.041-16.762,3.056-34.216,7.109-50.762
	c1.652-6.742,2.585-15.264,5.941-21.349c3.463-6.281,9.954-11.438,14.734-16.764c10.953-12.208,24.685-21.684,36.304-33.254
	c11.797-11.748,24.012-22.869,35.777-34.639c24.598-24.611,48.438-50.379,75.077-72.792c6.937-5.837,14.373-11.449,20.832-17.803
	c5.537-5.448,12.24-9.543,18.382-14.351c7.295-5.71,14.602-11.475,21.196-17.989c0.439-0.433,0.883-0.836,1.325-1.253
	c0.452-0.229,0.898-0.522,1.322-0.948c9.537-9.57,22.897-13.793,33.234-22.247c8.991-7.353,16.726-15.893,26.249-22.21
	C485.186,22.835,483.288,27.911,481.193,32.972z"/>
<path d="M94.47,278.597c-6.154,1.608-9.054,7.883-12.323,12.786c-3.612,5.418-8.84,10.1-7.56,17.127
	c0.783,4.305,6.99,4.608,9.002,1.176c1.261-2.15,2.035-4.499,3.364-6.626c1.489-2.38,3.193-4.573,4.489-7.073
	c2.308-4.453,5.208-8.728,7.009-13.409C99.375,280.184,96.666,278.024,94.47,278.597z"/>
<path d="M66.771,369.325c0.266-2.049-0.304-4.129-0.252-6.18c0.07-2.747,0.988-5.234,1.665-7.856
	c1.333-5.165,5.485-17.21,1.216-21.914c-0.585-0.645-1.872-0.699-2.447,0c-4.886,5.943-6.451,13.139-9.031,20.242
	c-2.188,6.023-4.037,14.518-0.925,20.605c0.759,1.483,2.984,2.45,4.586,1.867C64.826,374.908,66.328,372.738,66.771,369.325z"/>
<path d="M66.463,410.632c-0.645-0.605-1.645-0.627-2.29,0c-5.744,5.591-2.878,16.007-1.378,22.81
	c1.059,4.803,2.387,9.554,4.855,13.852c2.753,4.795,6.123,7.082,10.34,10.406c1.636,1.291,3.662,0.432,3.907-1.618
	c1.048-8.712-4.155-16.614-6.79-24.706C73.098,425.208,71.3,415.165,66.463,410.632z"/>
<path d="M139.587,498.024c-3.956-1.981-7.069-5.528-10.417-8.371c-3.487-2.96-6.977-5.628-10.213-8.817
	c-3.866-3.81-14.103-10.27-19.71-8.951c-0.765,0.18-1.126,1.002-0.975,1.716c0.948,4.462,2.816,7.448,6.063,10.673
	c3.734,3.71,6.261,8.076,10.263,11.607c7.209,6.36,15.515,11.967,24.988,6.866C141.328,501.81,141.412,498.938,139.587,498.024z"/>
<path d="M219.971,500.087c-5.327-4.213-12.215-4.729-18.724-3.471c-8.224,1.588-16.181,2.585-24.452,3.447
	c-4.125,0.43-4.05,5.853,0,6.364c3.251,0.412,6.45,2.851,9.749,3.602c4.069,0.925,8.152,1.378,12.313,0.998
	c6.04-0.553,15.147-0.316,20.21-3.923C221.143,505.622,222.425,502.029,219.971,500.087z"/>
<path d="M294.602,460.266c-4.265,1.622-9.188,1.758-13.596,3.47c-3.985,1.548-7.735,4.098-11.246,6.503
	c-3.076,2.105-5.117,5.462-8.044,7.49c-1.229,0.852-2.807,1.085-3.937,2.167c-1.005,0.962-1.426,2.56-2.321,3.396
	c-3.167,2.961,0.267,7.186,3.856,6.624c1.392-0.217,2.807-0.955,3.903-1.1c1.862-0.247,3.343,0.051,5.282-0.57
	c3.743-1.199,6.909-3.923,10.319-5.817c3.949-2.192,8.072-4.332,11.569-7.23c3.886-3.22,5.241-6.136,7.682-10.422
	C299.295,462.626,297.216,459.273,294.602,460.266z"/>
<path d="M371.877,415.258c-7.498-5.391-17.859-2.19-25.593,1.032c-8.914,3.713-15.914,9.859-21.794,17.415
	c-1.769,2.272-0.259,6.984,3.259,5.598c7.765-3.06,15.571-6.073,23.414-8.937c7.262-2.651,15.422-3.503,21.571-8.442
	C375.06,420.056,373.855,416.68,371.877,415.258z"/>
<path d="M440.18,413.925c-5.047-1.968-10.363-3.286-15.815-2.956c-5.88,0.357-10.129,3.127-15.56,4.506
	c-4.122,1.048-2.883,6.669,0.95,7.019c9.693,0.883,17.809,2.853,26.687,7.046c6.276,2.964,15.713,8.302,22.841,5.635
	c1.541-0.576,2.491-1.728,2.583-3.391C462.373,422.504,446.914,416.552,440.18,413.925z"/>
<path d="M503.284,451.348c-2.478-1.949-5.025-2.824-7.679-4.388c-2.285-1.346-4.11-3.391-6.421-4.739
	c-3.676-2.145-8.73,2.314-6.111,6.111c1.581,2.292,2.172,4.979,3.829,7.262c1.694,2.334,3.859,4.226,5.798,6.338
	c3.684,4.013,9.56,10.116,15.603,7.679c1.538-0.62,3.33-1.738,3.587-3.587C512.787,459.593,507.995,455.053,503.284,451.348z"/>
<path d="M218.184,338.824c1.201,0.903,3.163,0.444,4.155-0.536c0.086-0.084,0.171-0.169,0.256-0.253
	c0.546-0.539,0.797-1.272,0.815-2.015c0.316-1.875-0.334-4.139-0.324-6.007c0.014-2.288,0.087-4.558-0.066-6.846
	c-0.292-4.343-6.293-4.27-6.7,0C215.859,328.022,213.612,335.385,218.184,338.824z"/>
<path d="M225.962,318.848c-0.084,1.524-0.324,3.013-0.179,4.538c0.359,3.753,3.383,9.184,7.998,7.027
	c3.833-1.792,1.215-6.058,0.8-8.91c-0.5-3.429-0.25-7.125-3.479-9.284c-1.466-0.982-3.7-0.303-4.532,1.188l-0.397,0.54
	c-1.143,1.163-0.985,2.743-0.184,3.82C225.986,318.129,225.982,318.489,225.962,318.848z"/>
<path d="M177.214,243.046c-0.143-1.282-0.346-2.633-0.876-3.817c-0.226-0.506-0.423-0.905-0.779-1.336
	c-0.07-0.084-0.114-0.139-0.164-0.202c0.046-3.32-4.981-4.662-5.741-1.063c-0.243,1.152-0.423,2.222-0.003,3.346
	c0.332,0.882,0.856,1.286,1,2.104c0.59,3.334-0.749,7.146-0.47,10.552c0.276,3.36,5.046,5.359,6.857,1.858
	c0.136-0.262,0.254-0.569,0.362-0.889l0.01,0.01c0.004-0.026,0.007-0.051,0.011-0.076c0.262-0.807,0.394-1.735,0.273-2.59
	C177.81,248.316,177.499,245.617,177.214,243.046z"/>
<path d="M182.79,230.088c-0.347-0.229,0.136-0.274,0.16,0.077c0.07,0.031,0.13,0.071,0.204,0.099
	c-0.087-0.033-0.143-0.06-0.204-0.09c0.001,0.03,0.009,0.053,0.003,0.089c-0.089,0.497,0.084,1.305,0.08,1.819
	c-0.011,1.329-0.154,2.663-0.277,3.985c-0.186,1.988-0.605,4.409,0.602,6.153c1.766,2.557,5.119,2.558,6.886,0
	c1.629-2.36,0.626-6.937,0.31-9.53c-0.463-3.796-1.838-7.063-5.825-8.132C181.132,223.593,179.755,228.55,182.79,230.088z"/>
<path d="M182.79,230.088c0.04,0.026,0.094,0.054,0.16,0.086c0-0.003,0-0.006,0-0.009C182.895,230.14,182.842,230.115,182.79,230.088
	z"/>
<path d="M192.374,237.314c1.345,1.841,3.699,2.351,5.474,0.705c1.742-1.616,2.171-4.556,2.495-6.933
	c0.307-2.265,0.299-5.231-1.504-6.9c-1.286-1.191-3.287-1.268-4.569,0c-0.356,0.352-0.71,0.703-1.066,1.055
	c-1.188,1.175-1.04,2.797-0.236,3.936c-0.206,0.546-0.439,1.103-0.62,1.631C191.658,232.805,191.01,235.446,192.374,237.314z"/>
<path d="M206.887,224.272c0.364-0.17,0.706-0.372,1.039-0.589c0.775,0.929,1.814,1.592,3.17,1.699
	c1.631,0.129,2.362-1.541,2.18-2.863c0.096,0.372,0.077,0.182-0.056-0.569c-0.09-0.212-0.179-0.424-0.269-0.637
	c-0.033-0.076-0.053-0.119-0.073-0.16c0.003-0.059,0-0.151-0.021-0.342c-0.049-0.422-0.179-0.813-0.256-1.229
	c-0.023-0.121-0.147-1.175-0.096-0.636c-0.22-2.292-2.505-3.983-4.706-2.7c-1.462,0.853-2.571,2.134-3.926,2.866
	c-1.419,0.766-1.867,2.728-1.072,4.086C203.675,224.698,205.419,224.958,206.887,224.272z"/>
<g>
</g>
<g>
</g>
<g>
</g>
<g>
</g>
<g>
</g>
<g>
</g>
<g>
</g>
<g>
</g>
<g>
</g>
<g>
</g>
<g>
</g>
<g>
</g>
<g>
</g>
<g>
</g>
<g>
</g>
</svg>
